<svg width="240" height="240" viewBox="0 0 240 240" fill="none" xmlns="http://www.w3.org/2000/svg">
<rect x="1.5" y="1.5" width="237" height="237" rx="118.5" stroke="black" stroke-width="3"/>
<mask id="path-2-outside-1_312_2" maskUnits="userSpaceOnUse" x="45.3521" y="60" width="82" height="112" fill="black">
<rect fill="white" x="45.3521" y="60" width="82" height="112"/>
<path d="M125.737 171V61.9091H88.8763C80.3536 61.9091 73.3579 63.3651 67.8891 66.277C62.4204 69.1534 58.3721 73.1129 55.7442 78.1555C53.1164 83.1982 51.8025 88.9332 51.8025 95.3608C51.8025 101.788 53.1164 107.488 55.7442 112.46C58.3721 117.431 62.4026 121.337 67.8358 124.178C73.2691 126.984 80.2116 128.386 88.6633 128.386H118.493V116.455H89.0894C83.2655 116.455 78.578 115.602 75.0269 113.898C71.4403 112.193 68.8479 109.778 67.2499 106.653C65.6164 103.493 64.7996 99.7287 64.7996 95.3608C64.7996 90.9929 65.6164 87.1754 67.2499 83.9084C68.8834 80.6413 71.4935 78.12 75.0802 76.3445C78.6668 74.5334 83.4076 73.6278 89.3025 73.6278H112.527V171H125.737ZM74.3877 121.994L47.5411 171H62.882L89.3025 121.994H74.3877Z"/>
</mask>
<path d="M125.737 171V61.9091H88.8763C80.3536 61.9091 73.3579 63.3651 67.8891 66.277C62.4204 69.1534 58.3721 73.1129 55.7442 78.1555C53.1164 83.1982 51.8025 88.9332 51.8025 95.3608C51.8025 101.788 53.1164 107.488 55.7442 112.46C58.3721 117.431 62.4026 121.337 67.8358 124.178C73.2691 126.984 80.2116 128.386 88.6633 128.386H118.493V116.455H89.0894C83.2655 116.455 78.578 115.602 75.0269 113.898C71.4403 112.193 68.8479 109.778 67.2499 106.653C65.6164 103.493 64.7996 99.7287 64.7996 95.3608C64.7996 90.9929 65.6164 87.1754 67.2499 83.9084C68.8834 80.6413 71.4935 78.12 75.0802 76.3445C78.6668 74.5334 83.4076 73.6278 89.3025 73.6278H112.527V171H125.737ZM74.3877 121.994L47.5411 171H62.882L89.3025 121.994H74.3877Z" fill="black"/>
<path d="M125.737 171H126.737V172H125.737V171ZM125.737 61.9091V60.9091H126.737V61.9091H125.737ZM67.8891 66.277L68.3591 67.1597L68.3546 67.162L67.8891 66.277ZM55.7442 78.1555L56.631 78.6177L56.631 78.6177L55.7442 78.1555ZM55.7442 112.46L56.6283 111.992L56.6283 111.992L55.7442 112.46ZM67.8358 124.178L67.3771 125.067L67.3725 125.064L67.8358 124.178ZM118.493 128.386H119.493V129.386H118.493V128.386ZM118.493 116.455V115.455H119.493V116.455H118.493ZM75.0269 113.898L75.4561 112.995L75.4596 112.996L75.0269 113.898ZM67.2499 106.653L68.1383 106.194L68.1403 106.198L67.2499 106.653ZM75.0802 76.3445L75.5309 77.2371L75.5238 77.2407L75.0802 76.3445ZM112.527 73.6278V72.6278H113.527V73.6278H112.527ZM112.527 171V172H111.527V171H112.527ZM74.3877 121.994L73.5107 121.514L73.7953 120.994H74.3877V121.994ZM47.5411 171V172H45.8531L46.6641 170.52L47.5411 171ZM62.882 171L63.7622 171.475L63.479 172H62.882V171ZM89.3025 121.994V120.994H90.9777L90.1827 122.469L89.3025 121.994ZM124.737 171V61.9091H126.737V171H124.737ZM125.737 62.9091H88.8763V60.9091H125.737V62.9091ZM88.8763 62.9091C80.459 62.9091 73.6391 64.3482 68.3591 67.1597L67.4191 65.3943C73.0766 62.3819 80.2482 60.9091 88.8763 60.9091V62.9091ZM68.3546 67.162C63.0497 69.9523 59.1566 73.7714 56.631 78.6177L54.8574 77.6934C57.5876 72.4545 61.791 68.3545 67.4236 65.3919L68.3546 67.162ZM56.631 78.6177C54.0868 83.4999 52.8025 89.0729 52.8025 95.3608H50.8025C50.8025 88.7935 52.146 82.8964 54.8574 77.6934L56.631 78.6177ZM52.8025 95.3608C52.8025 101.649 54.0869 107.184 56.6283 111.992L54.8601 112.927C52.1459 107.792 50.8025 101.928 50.8025 95.3608H52.8025ZM56.6283 111.992C59.153 116.769 63.0284 120.536 68.2992 123.292L67.3725 125.064C61.7768 122.139 57.5912 118.094 54.8601 112.927L56.6283 111.992ZM68.2946 123.29C73.5424 125.999 80.3135 127.386 88.6633 127.386V129.386C80.1096 129.386 72.9958 127.968 67.3771 125.067L68.2946 123.29ZM88.6633 127.386H118.493V129.386H88.6633V127.386ZM117.493 128.386V116.455H119.493V128.386H117.493ZM118.493 117.455H89.0894V115.455H118.493V117.455ZM89.0894 117.455C83.1815 117.455 78.3292 116.592 74.5942 114.799L75.4596 112.996C78.8268 114.612 83.3495 115.455 89.0894 115.455V117.455ZM74.5977 114.801C70.8396 113.015 68.0708 110.455 66.3596 107.109L68.1403 106.198C69.6251 109.102 72.0409 111.371 75.4561 112.995L74.5977 114.801ZM66.3616 107.113C64.6398 103.781 63.7996 99.8526 63.7996 95.3608H65.7996C65.7996 99.6048 66.593 103.204 68.1383 106.194L66.3616 107.113ZM63.7996 95.3608C63.7996 90.8678 64.6402 86.8917 66.3555 83.4612L68.1443 84.3556C66.5926 87.4591 65.7996 91.118 65.7996 95.3608H63.7996ZM66.3555 83.4612C68.0958 79.9806 70.8745 77.3107 74.6365 75.4483L75.5238 77.2407C72.1126 78.9294 69.6711 81.3021 68.1443 84.3556L66.3555 83.4612ZM74.6294 75.4518C78.4057 73.545 83.3186 72.6278 89.3025 72.6278V74.6278C83.4966 74.6278 78.9279 75.5218 75.5309 77.2371L74.6294 75.4518ZM89.3025 72.6278H112.527V74.6278H89.3025V72.6278ZM113.527 73.6278V171H111.527V73.6278H113.527ZM112.527 170H125.737V172H112.527V170ZM75.2647 122.475L48.4181 171.48L46.6641 170.52L73.5107 121.514L75.2647 122.475ZM47.5411 170H62.882V172H47.5411V170ZM62.0018 170.525L88.4222 121.52L90.1827 122.469L63.7622 171.475L62.0018 170.525ZM89.3025 122.994H74.3877V120.994H89.3025V122.994Z" fill="black" mask="url(#path-2-outside-1_312_2)"/>
<mask id="path-4-outside-2_312_2" maskUnits="userSpaceOnUse" x="110" y="60" width="85" height="112" fill="black">
<rect fill="white" x="110" y="60" width="85" height="112"/>
<path d="M111.284 171V61.9091H124.495V116.028H125.773L174.779 61.9091H192.037L146.228 111.128L192.037 171H176.057L138.131 120.29L124.495 135.631V171H111.284Z"/>
</mask>
<path d="M111.284 171V61.9091H124.495V116.028H125.773L174.779 61.9091H192.037L146.228 111.128L192.037 171H176.057L138.131 120.29L124.495 135.631V171H111.284Z" fill="black"/>
<path d="M111.284 171H110.284V172H111.284V171ZM111.284 61.9091V60.9091H110.284V61.9091H111.284ZM124.495 61.9091H125.495V60.9091H124.495V61.9091ZM124.495 116.028H123.495V117.028H124.495V116.028ZM125.773 116.028V117.028H126.217L126.514 116.7L125.773 116.028ZM174.779 61.9091V60.9091H174.335L174.038 61.2379L174.779 61.9091ZM192.037 61.9091L192.769 62.5904L194.334 60.9091H192.037V61.9091ZM146.228 111.128L145.496 110.447L144.92 111.065L145.433 111.735L146.228 111.128ZM192.037 171V172H194.062L192.831 170.392L192.037 171ZM176.057 171L175.256 171.599L175.556 172H176.057V171ZM138.131 120.29L138.932 119.691L138.198 118.709L137.384 119.625L138.131 120.29ZM124.495 135.631L123.747 134.966L123.495 135.25V135.631H124.495ZM124.495 171V172H125.495V171H124.495ZM112.284 171V61.9091H110.284V171H112.284ZM111.284 62.9091H124.495V60.9091H111.284V62.9091ZM123.495 61.9091V116.028H125.495V61.9091H123.495ZM124.495 117.028H125.773V115.028H124.495V117.028ZM126.514 116.7L175.52 62.5803L174.038 61.2379L125.032 115.357L126.514 116.7ZM174.779 62.9091H192.037V60.9091H174.779V62.9091ZM191.305 61.2278L145.496 110.447L146.96 111.809L192.769 62.5904L191.305 61.2278ZM145.433 111.735L191.243 171.608L192.831 170.392L147.022 110.52L145.433 111.735ZM192.037 170H176.057V172H192.037V170ZM176.858 170.401L138.932 119.691L137.33 120.889L175.256 171.599L176.858 170.401ZM137.384 119.625L123.747 134.966L125.242 136.295L138.878 120.954L137.384 119.625ZM123.495 135.631V171H125.495V135.631H123.495ZM124.495 170H111.284V172H124.495V170Z" fill="black" mask="url(#path-4-outside-2_312_2)"/>
</svg>
